<?xml version="1.0" standalone="no"?>
<!DOCTYPE svg PUBLIC "-//W3C//DTD SVG 20010904//EN"
 "http://www.w3.org/TR/2001/REC-SVG-20010904/DTD/svg10.dtd">
<svg version="1.0" xmlns="http://www.w3.org/2000/svg"
 width="500.000000pt" height="500.000000pt" viewBox="0 0 500.000000 500.000000"
 preserveAspectRatio="xMidYMid meet">
<metadata>
Created by potrace 1.14, written by Peter Selinger 2001-2017
</metadata>
<g transform="translate(0.000000,500.000000) scale(0.100000,-0.100000)"
fill="#000000" stroke="none">
<path d="M2265 4991 c-316 -32 -642 -130 -925 -278 -475 -248 -841 -624 -1080
-1108 -119 -242 -185 -449 -232 -730 -31 -190 -32 -564 0 -750 47 -280 111
-483 227 -720 124 -253 252 -437 440 -633 428 -445 970 -704 1600 -762 364
-33 772 27 1125 166 745 295 1300 925 1501 1702 57 223 72 352 72 622 0 204
-3 267 -21 377 -46 274 -122 511 -241 748 -362 717 -1015 1198 -1821 1340
-117 21 -186 27 -355 30 -115 2 -246 0 -290 -4z m493 -780 c795 -171 1343
-872 1309 -1675 -11 -252 -63 -446 -184 -686 -41 -83 -74 -152 -72 -154 2 -1
153 -78 334 -170 182 -92 336 -175 343 -184 18 -23 15 -56 -7 -76 -17 -15
-116 -26 -663 -72 -637 -54 -644 -55 -708 -84 -150 -67 -346 -121 -490 -135
-179 -16 -168 -13 -180 -50 -17 -52 -83 -119 -141 -145 -77 -32 -177 -26 -245
15 -95 59 -146 175 -124 282 15 68 65 140 124 177 66 41 170 48 244 16 59 -26
125 -93 142 -146 11 -33 13 -34 67 -34 141 0 380 57 541 130 l87 39 500 40
c275 23 518 45 540 49 40 7 40 7 -233 146 -204 103 -276 145 -284 162 -13 28
-6 44 72 169 157 251 241 609 211 900 -21 213 -59 351 -146 532 -234 489 -716
817 -1255 852 -363 24 -707 -72 -997 -280 -109 -78 -269 -238 -346 -346 -237
-334 -329 -746 -262 -1180 34 -217 115 -393 240 -519 86 -87 153 -130 255
-164 219 -74 529 -26 747 116 81 52 844 812 876 873 105 194 9 439 -201 512
-27 9 -35 8 -57 -9 -59 -46 -147 -32 -185 30 -43 70 -11 160 66 187 53 19 88
9 137 -40 22 -21 46 -39 54 -39 7 0 46 -16 86 -36 203 -103 309 -337 252 -557
-32 -124 -45 -140 -449 -545 -209 -211 -406 -403 -437 -427 -181 -141 -382
-212 -624 -222 -117 -4 -156 -2 -240 16 -354 73 -585 358 -651 802 -23 160
-15 511 15 651 47 219 144 441 269 618 86 122 271 307 392 393 181 127 403
223 620 265 155 31 149 31 365 27 152 -3 222 -8 293 -24z m-442 -907 c46 -22
78 -84 70 -132 -7 -45 -59 -100 -103 -108 -42 -8 -86 10 -118 47 -30 36 -79
39 -160 8 -192 -72 -287 -281 -215 -474 21 -55 44 -82 296 -336 292 -294 299
-304 254 -349 -42 -42 -52 -34 -341 258 -232 233 -281 287 -307 340 -81 166
-65 367 43 514 77 105 218 183 355 195 36 3 76 13 90 23 50 34 86 38 136 14z"/>
</g>
</svg>
